Coordinates
version=1
nRows=9
nColumns=36
inDegrees=yes

Units are S.I. units (second, meters, Newtons, ...)
If the header above contains a line with 'inDegrees', this indicates whether rotational values are in degrees (yes) or radians (no).

endheader
time	pelvis_tilt	pelvis_list	pelvis_rotation	pelvis_tx	pelvis_ty	pelvis_tz	hip_flexion_r	hip_adduction_r	hip_rotation_r	knee_angle_r	knee_angle_r_beta	ankle_angle_r	subtalar_angle_r	mtp_angle_r	hip_flexion_l	hip_adduction_l	hip_rotation_l	knee_angle_l	knee_angle_l_beta	ankle_angle_l	subtalar_angle_l	mtp_angle_l	lumbar_extension	lumbar_bending	lumbar_rotation	arm_flex_r	arm_add_r	arm_rot_r	elbow_flex_r	pro_sup_r	arm_flex_l	arm_add_l	arm_rot_l	elbow_flex_l	pro_sup_l
      0.00000000	      7.17378409	     -2.22263235	      0.16803143	     -0.85003704	      1.26781495	     -0.09374746	     -8.95983132	      0.48408436	     -1.23743403	      4.56004270	      0.07958776	      3.34952206	     -6.43167744	     -6.15687093	     -9.38095195	     -3.59049617	     -1.72684814	      4.36061974	      0.07610717	      5.98446138	     -4.79774167	     -6.15687093	    -16.18623045	      2.32253995	     -0.94319651	     10.23662193	     -5.42782383	     27.76275123	     19.66927858	     69.25005454	      4.89990703	     -5.50907669	     22.22289354	     17.93955653	     61.42832209
      0.00166670	      6.37616753	     -1.85794980	      0.77128975	     -0.84832144	      1.26805929	     -0.09476763	     -8.68809870	      0.62894414	     -1.14104570	      3.60912108	      0.06299105	      3.97948069	     -3.18391517	     -6.26023598	     -8.96873299	     -2.92526331	     -1.27578487	      3.28519075	      0.05733740	      4.64533579	     -4.32801947	     -6.26023598	    -14.34418749	      1.82541729	     -0.81797026	      9.59749302	     -4.86191028	     26.99531007	     18.03993913	     69.20606376	      5.05528683	     -5.04530415	     22.18393921	     17.07981056	     61.66008815
      0.00333330	      5.48957287	     -1.39291716	      0.60022717	     -0.84710051	      1.26655771	     -0.09299670	     -8.09481427	      0.36651416	     -1.53903402	      2.81379545	      0.04911000	      3.71075507	     -2.99302811	     -6.33842370	     -8.16903228	     -2.35460506	     -1.69377717	      2.98395021	      0.05207976	      4.15049797	     -4.09596846	     -6.33842370	    -13.24498525	      0.89759009	     -0.74916457	      8.84015027	     -4.44590479	     26.57582637	     18.65976285	     68.72633960	      4.79866077	     -5.27082829	     21.92064844	     17.63950261	     61.59153137
      0.00500000	      5.86205416	     -1.14305853	      0.66224864	     -0.84735405	      1.26586300	     -0.09255502	     -8.72602339	      0.09742903	     -2.31673908	      2.25133102	      0.03929314	      4.24493851	     -1.38372180	     -6.95025403	     -8.88217633	     -2.05527137	     -2.08772644	      2.14637614	      0.03746133	      3.91761783	     -3.56997097	     -6.95025403	    -13.88760890	      0.49904522	      0.02533949	      7.66118133	     -3.20771411	     12.84394906	     19.63896759	     83.89770621	      5.41682159	     -4.81550772	     17.66187108	     17.02017068	     69.09111787
      0.00666670	      5.99061634	     -0.99256606	      0.64947638	     -0.84682222	      1.26509491	     -0.09154422	     -9.06474610	      0.01100053	     -2.17335420	      1.92021036	      0.03351399	      4.55177578	     -1.27983672	     -7.10075009	     -9.27148202	     -1.89225047	     -2.09695209	      1.63056051	      0.02845865	      3.82868616	     -3.74139440	     -7.10075009	    -14.14691508	      0.23808526	      0.23567005	      7.41414174	     -2.92743129	     11.86278539	     20.10164069	     80.36304822	      5.47442599	     -4.70291227	     16.30083165	     17.28496519	     67.28295708
      0.00833330	      6.18587425	     -0.93826167	      0.66815007	     -0.84805615	      1.26622323	     -0.09266317	     -9.36761272	     -0.08068002	     -1.94878385	      1.81707113	      0.03171387	      4.69148951	     -1.37047056	     -7.18369798	     -9.56707544	     -1.80772313	     -1.84278152	      1.39491122	      0.02434579	      3.93347873	     -3.68976554	     -7.18369798	    -14.53534555	      0.18991054	      0.52451356	      7.37396788	     -2.86586586	     11.20091220	     20.35499141	     78.46866561	      5.66053896	     -4.55701144	     15.02401421	     17.59801787	     66.29499040
      0.01000000	      6.26598768	     -0.90970810	      0.69498384	     -0.84846318	      1.26272141	     -0.09317199	     -9.42935574	     -0.14431782	     -1.82958281	      1.79894641	      0.03139754	      5.06467714	     -1.36459110	     -7.20180939	     -9.65251762	     -1.79900003	     -1.52519468	      1.38212763	      0.02412268	      4.05966164	     -4.09664065	     -7.20180939	    -14.73017888	      0.23304594	      0.53423602	      7.60829626	     -2.81189831	     10.67312593	     20.23930537	     80.71116512	      5.68279715	     -4.22899996	     11.96964551	     17.79331806	     66.89002861
      0.01166670	      6.28356327	     -0.87982782	      0.64549390	     -0.84805158	      1.26371114	     -0.09249658	     -9.46577348	     -0.19950749	     -1.34739386	      1.72787510	      0.03015711	      4.94582792	     -1.80523090	     -7.31138292	     -9.70404619	     -1.80541105	     -1.44778123	      1.38216039	      0.02412325	      4.15579480	     -3.94394666	     -7.31138292	    -14.80092704	      0.20798277	      0.60291520	      7.82542808	     -2.92440062	     11.91160552	     20.03745111	     79.97737509	      5.82312304	     -4.05809063	     11.11622367	     17.81462828	     66.82987932
      0.01333330	      6.30731307	     -0.82689737	      0.61550904	     -0.84831780	      1.26727519	     -0.09228846	     -9.53692913	     -0.25649457	     -1.38211876	      1.64721261	      0.02874928	      4.79837156	     -1.52523598	     -7.45261280	     -9.71496261	     -1.76075319	     -1.33306724	      1.36270697	      0.02378372	      3.97579843	     -3.91724233	     -7.45261280	    -14.89546960	      0.16030635	      0.60978308	      7.85346721	     -2.83924782	     10.55335916	     20.10310738	     84.25773850	      5.80370458	     -3.88664166	      9.30360494	     18.02389169	     70.19852924
